REM DIRINDEX 1\2,1\3,1\4,1\5,1\6
REM DIRNAME cjc129,folder01,folder02,folder03,folder04,folder05
TITLE ""
FILE "DISC1Track06.mp3" MP3
  TRACK 01 AUDIO
    TITLE "0:"
    INDEX 01 00:00:00
  TRACK 02 AUDIO
    TITLE "2:cjc129_0115"
    INDEX 01 00:03:14
  TRACK 03 AUDIO
    TITLE "0:"
    INDEX 01 00:12:03
  TRACK 04 AUDIO
    TITLE "3:cjc129_0116"
    INDEX 01 00:13:14
  TRACK 05 AUDIO
    TITLE "0:"
    INDEX 01 00:14:29
  TRACK 06 AUDIO
    TITLE "5:cjc129_0117"
    INDEX 01 00:14:60
  TRACK 07 AUDIO
    TITLE "0:"
    INDEX 01 00:18:64
  TRACK 08 AUDIO
    TITLE "4:cjc129_0118"
    INDEX 01 00:19:52
  TRACK 09 AUDIO
    TITLE "0:"
    INDEX 01 00:20:67
  TRACK 10 AUDIO
    TITLE "6:cjc129_0119"
    INDEX 01 00:21:25
  TRACK 11 AUDIO
    TITLE "0:"
    INDEX 01 00:27:26
  TRACK 12 AUDIO
    TITLE "3:cjc129_0120"
    INDEX 01 00:28:74
  TRACK 13 AUDIO
    TITLE "0:"
    INDEX 01 00:30:12
  TRACK 14 AUDIO
    TITLE "5:cjc129_0121"
    INDEX 01 00:30:44
  TRACK 15 AUDIO
    TITLE "0:"
    INDEX 01 00:36:66
  TRACK 16 AUDIO
    TITLE "4:cjc129_0122"
    INDEX 01 00:37:56
  TRACK 17 AUDIO
    TITLE "0:"
    INDEX 01 00:38:67
  TRACK 18 AUDIO
    TITLE "6:cjc129_0123"
    INDEX 01 00:39:27
  TRACK 19 AUDIO
    TITLE "0:"
    INDEX 01 00:44:44
  TRACK 20 AUDIO
    TITLE "3:cjc129_0124"
    INDEX 01 00:46:19
  TRACK 21 AUDIO
    TITLE "0:"
    INDEX 01 00:49:27
  TRACK 22 AUDIO
    TITLE "5:cjc129_0125"
    INDEX 01 00:49:59
  TRACK 23 AUDIO
    TITLE "0:"
    INDEX 01 00:53:37
  TRACK 24 AUDIO
    TITLE "4:cjc129_0126"
    INDEX 01 00:54:27
  TRACK 25 AUDIO
    TITLE "0:"
    INDEX 01 00:57:35
  TRACK 26 AUDIO
    TITLE "6:cjc129_0127"
    INDEX 01 00:57:68
  TRACK 27 AUDIO
    TITLE "0:"
    INDEX 01 01:02:40
  TRACK 28 AUDIO
    TITLE "3:cjc129_0128"
    INDEX 01 01:04:17
  TRACK 29 AUDIO
    TITLE "0:"
    INDEX 01 01:05:26
  TRACK 30 AUDIO
    TITLE "5:cjc129_0129"
    INDEX 01 01:06:69
  TRACK 31 AUDIO
    TITLE "0:"
    INDEX 01 01:11:62
  TRACK 32 AUDIO
    TITLE "4:cjc129_0130"
    INDEX 01 01:12:52
  TRACK 33 AUDIO
    TITLE "0:"
    INDEX 01 01:13:61
  TRACK 34 AUDIO
    TITLE "6:cjc129_0131"
    INDEX 01 01:14:16
  TRACK 35 AUDIO
    TITLE "0:"
    INDEX 01 01:17:49
  TRACK 36 AUDIO
    TITLE "3:cjc129_0132"
    INDEX 01 01:19:25
  TRACK 37 AUDIO
    TITLE "0:"
    INDEX 01 01:20:32
  TRACK 38 AUDIO
    TITLE "5:cjc129_0133"
    INDEX 01 01:21:65
  TRACK 39 AUDIO
    TITLE "0:"
    INDEX 01 01:23:67
  TRACK 40 AUDIO
    TITLE "4:cjc129_0134"
    INDEX 01 01:24:55
  TRACK 41 AUDIO
    TITLE "0:"
    INDEX 01 01:25:64
  TRACK 42 AUDIO
    TITLE "6:cjc129_0135"
    INDEX 01 01:26:21
  TRACK 43 AUDIO
    TITLE "0:"
    INDEX 01 01:31:71
  TRACK 44 AUDIO
    TITLE "3:cjc129_0136"
    INDEX 01 01:33:48
  TRACK 45 AUDIO
    TITLE "0:"
    INDEX 01 01:34:57
  TRACK 46 AUDIO
    TITLE "5:cjc129_0137"
    INDEX 01 01:36:25
  TRACK 47 AUDIO
    TITLE "0:"
    INDEX 01 01:38:22
  TRACK 48 AUDIO
    TITLE "4:cjc129_0138"
    INDEX 01 01:39:12
  TRACK 49 AUDIO
    TITLE "0:"
    INDEX 01 01:40:19
  TRACK 50 AUDIO
    TITLE "6:cjc129_0139"
    INDEX 01 01:40:50
  TRACK 51 AUDIO
    TITLE "0:"
    INDEX 01 01:44:46
  TRACK 52 AUDIO
    TITLE "3:cjc129_0140"
    INDEX 01 01:46:21
  TRACK 53 AUDIO
    TITLE "0:"
    INDEX 01 01:47:42
  TRACK 54 AUDIO
    TITLE "5:cjc129_0141"
    INDEX 01 01:49:14
  TRACK 55 AUDIO
    TITLE "0:"
    INDEX 01 01:51:19
  TRACK 56 AUDIO
    TITLE "4:cjc129_0142"
    INDEX 01 01:52:10
  TRACK 57 AUDIO
    TITLE "0:"
    INDEX 01 01:53:33
  TRACK 58 AUDIO
    TITLE "6:cjc129_0143"
    INDEX 01 01:53:63
  TRACK 59 AUDIO
    TITLE "0:"
    INDEX 01 01:59:18
  TRACK 60 AUDIO
    TITLE "3:cjc129_0144"
    INDEX 01 02:00:67
  TRACK 61 AUDIO
    TITLE "0:"
    INDEX 01 02:02:13
  TRACK 62 AUDIO
    TITLE "5:cjc129_0145"
    INDEX 01 02:03:45
  TRACK 63 AUDIO
    TITLE "0:"
    INDEX 01 02:07:67
  TRACK 64 AUDIO
    TITLE "4:cjc129_0146"
    INDEX 01 02:08:56
  TRACK 65 AUDIO
    TITLE "0:"
    INDEX 01 02:10:04
  TRACK 66 AUDIO
    TITLE "6:cjc129_0147"
    INDEX 01 02:10:36
  TRACK 67 AUDIO
    TITLE "0:"
    INDEX 01 02:15:52
